<?xml version="1.0" encoding="utf-8"?>
<!-- Generator: Adobe Illustrator 21.1.0, SVG Export Plug-In . SVG Version: 6.00 Build 0)  -->
<svg version="1.1" id="Layer_1" xmlns="http://www.w3.org/2000/svg" xmlns:xlink="http://www.w3.org/1999/xlink" x="0px" y="0px"
	 viewBox="0 0 67 67" enable-background="new 0 0 67 67" xml:space="preserve">
<circle fill="#7F18C7" cx="33.5" cy="33.5" r="33.5"/>
<g>
	<path fill="#ECECEC" d="M44.9,47.9c0,0.3-0.3,0.6-0.6,0.6H23.2c-0.3,0-0.6-0.3-0.6-0.6V21.4c0-0.3,0.3-0.6,0.6-0.6h2.3v1.7h1.2
		v-1.7h4v1.7h1.2v-1.7h4v1.7h1.2v-1.7h4v1.7H42v-1.7h2.3c0.3,0,0.6,0.3,0.6,0.6v10.4l1.2-1.2v-9.2c0-1-0.8-1.7-1.7-1.7H42v-2.3h-1.2
		v2.3h-4v-2.3h-1.2v2.3h-4v-2.3h-1.2v2.3h-4v-2.3h-1.2v2.3h-2.3c-1,0-1.7,0.8-1.7,1.7v26.5c0,1,0.8,1.7,1.7,1.7h21.1
		c1,0,1.7-0.8,1.7-1.7v-8.2l-1.2,1.2V47.9z"/>
	<rect x="26.7" y="26.5" fill="#ECECEC" width="14.1" height="1.2"/>
	<rect x="26.7" y="30.9" fill="#ECECEC" width="14.1" height="1.2"/>
	<polygon fill="#ECECEC" points="26.7,36.4 40.3,36.4 40.8,35.9 40.8,35.2 26.7,35.2 	"/>
	<path fill="#ECECEC" d="M38.6,39l-1,4.8l4.6-1.2L52.8,32l-3.6-3.6L38.6,39z M40.1,39.2l-0.5-0.5l9.2-9.2l0.5,0.5L40.1,39.2z"/>
	<path fill="#ECECEC" d="M54.3,29.3l-2.4-2.4c-0.3-0.3-0.9-0.3-1.2,0L50,27.6l3.6,3.6l0.7-0.7C54.6,30.2,54.6,29.6,54.3,29.3z"/>
</g>
</svg>
