<?xml version="1.0" encoding="utf-8"?>
<!-- Generator: Adobe Illustrator 21.1.0, SVG Export Plug-In . SVG Version: 6.00 Build 0)  -->
<svg version="1.1" id="Layer_1" xmlns="http://www.w3.org/2000/svg" xmlns:xlink="http://www.w3.org/1999/xlink" x="0px" y="0px"
	 viewBox="0 0 67 67" enable-background="new 0 0 67 67" xml:space="preserve">
<circle fill="#1671DA" cx="33.5" cy="33.5" r="33.5"/>
<g>
	<path fill="#FFFFFF" d="M32.6,43.4V21.6c-1.7-1.3-4-2.1-6.5-2.1s-4.8,0.8-6.5,2.1v21.9c1.7-1.3,4-2.1,6.5-2.1S30.8,42.1,32.6,43.4z
		"/>
	<path fill="#FFFFFF" d="M47.1,43.4V21.6c-1.7-1.3-4-2.1-6.5-2.1s-4.8,0.8-6.5,2.1v21.9c1.7-1.3,4-2.1,6.5-2.1S45.3,42.1,47.1,43.4z
		"/>
	<polygon fill="#FFFFFF" points="49.8,24 49.8,45 38.1,45 36.6,45 36.6,46.5 30.4,46.5 30.4,45 28.9,45 17.2,45 17.2,24 15.8,24 
		15.8,45 15.8,46.1 17.2,46.1 28.9,46.1 28.9,47.6 38.1,47.6 38.1,46.1 49.8,46.1 51.2,46.1 51.2,45 51.2,24 	"/>
</g>
</svg>
